Coordinates
version=1
nRows=18
nColumns=63
inDegrees=yes

Units are S.I. units (second, meters, Newtons, ...)
If the header above contains a line with 'inDegrees', this indicates whether rotational values are in degrees (yes) or radians (no).

endheader
time	pelvis_tilt	pelvis_list	pelvis_rotation	pelvis_tx	pelvis_ty	pelvis_tz	hip_flexion_r	hip_adduction_r	hip_rotation_r	knee_angle_r	knee_angle_r_beta	ankle_angle_r	subtalar_angle_r	mtp_angle_r	hip_flexion_l	hip_adduction_l	hip_rotation_l	knee_angle_l	knee_angle_l_beta	ankle_angle_l	subtalar_angle_l	mtp_angle_l	L5_S1_Flex_Ext	L5_S1_Lat_Bending	L5_S1_axial_rotation	L4_L5_Flex_Ext	L4_L5_Lat_Bending	L4_L5_axial_rotation	L3_L4_Flex_Ext	L3_L4_Lat_Bending	L3_L4_axial_rotation	L2_L3_Flex_Ext	L2_L3_Lat_Bending	L2_L3_axial_rotation	L1_L2_Flex_Ext	L1_L2_Lat_Bending	L1_L2_axial_rotation	L1_T12_Flex_Ext	L1_T12_Lat_Bending	L1_T12_axial_rotation	Abs_r3	Abs_r2	Abs_r1	Abs_t1	Abs_t2	neck_flexion	neck_bending	neck_rotation	arm_flex_r	arm_add_r	arm_rot_r	elbow_flex_r	pro_sup_r	wrist_flex_r	wrist_dev_r	arm_flex_l	arm_add_l	arm_rot_l	elbow_flex_l	pro_sup_l	wrist_flex_l	wrist_dev_l
0.000000	6.417905	-5.313251	93.177390	0.307753	1.058066	0.375731	-0.635497	1.239157	-14.031827	8.171330	0.142617	28.481997	15.432830	0.000000	2.060874	-0.903795	-4.281172	11.785784	0.205701	28.879907	7.822003	0.000000	0.082050	-0.004012	0.000746	0.152376	-0.005336	0.000793	0.134801	-0.009755	0.000793	0.093775	-0.009755	0.000653	0.076192	-0.008182	0.000606	0.046884	-0.006215	0.000560	0.586078	-0.045386	0.004150	0.000000	0.000000	18.922980	-2.874864	-10.037684	3.851990	-11.284812	45.486135	57.417734	7.764049	-16.453960	21.201202	15.390459	-8.758014	68.580763	51.066863	65.046325	-0.072180	3.563266
0.016949	6.619723	-5.392543	93.278575	0.307687	1.057655	0.375663	-0.539240	1.418717	-14.443120	8.253007	0.144042	28.569428	15.736897	0.000000	2.200805	-1.092486	-4.025955	12.079689	0.210830	28.315923	6.617604	0.000000	0.093321	0.028414	-0.114521	0.173307	0.037791	-0.121678	0.153317	0.069086	-0.121678	0.106657	0.069086	-0.100205	0.086658	0.057942	-0.093048	0.053324	0.044013	-0.085890	0.666583	0.321425	-0.636929	0.000000	0.000000	19.232313	-2.574545	-9.026008	4.182000	-11.382939	46.510256	57.357221	8.213117	-16.156976	20.567042	14.860052	-8.870376	67.423600	51.321683	66.923983	0.177614	3.683392
0.033898	6.775730	-5.464757	93.365891	0.307637	1.057325	0.375603	-0.454139	1.553699	-14.790445	8.320020	0.145212	28.647080	16.004698	0.000000	2.326213	-1.238328	-3.831281	12.317443	0.214980	27.894781	5.686804	0.000000	0.103046	0.053949	-0.212571	0.191366	0.071753	-0.225857	0.169294	0.131172	-0.225857	0.117771	0.131172	-0.186000	0.095688	0.110013	-0.172714	0.058880	0.083567	-0.159429	0.736046	0.610285	-1.182259	0.000000	0.000000	19.510644	-2.284789	-8.166979	4.450334	-11.458390	47.373773	57.288514	8.626362	-15.828570	19.987035	14.409480	-8.965716	66.431839	51.533565	68.504531	0.361859	3.811229
0.050847	6.890384	-5.529731	93.440341	0.307602	1.057070	0.375550	-0.379993	1.648792	-15.077979	8.373159	0.146139	28.716348	16.238117	0.000000	2.437268	-1.345661	-3.692331	12.503494	0.218227	27.602309	5.005336	0.000000	0.111314	0.073241	-0.294639	0.206721	0.097410	-0.313054	0.182878	0.178078	-0.313054	0.127221	0.178078	-0.257809	0.103366	0.149353	-0.239394	0.063605	0.113450	-0.220979	0.795104	0.828517	-1.638695	0.000000	0.000000	19.757983	-2.007126	-7.449120	4.663083	-11.513102	48.089267	57.211595	9.010790	-15.470684	19.460038	14.033129	-9.045121	65.595444	51.705225	69.804258	0.488031	3.944287
0.067797	6.968143	-5.587307	93.502925	0.307581	1.056883	0.375507	-0.316601	1.708679	-15.309897	8.413216	0.146838	28.778623	16.439037	0.000000	2.534141	-1.418822	-3.604284	12.642285	0.220649	27.424335	4.548934	0.000000	0.118214	0.086936	-0.361957	0.219536	0.115625	-0.384579	0.194214	0.211377	-0.384579	0.135107	0.211377	-0.316712	0.109774	0.177281	-0.294090	0.067548	0.134665	-0.271468	0.844393	0.983443	-2.013095	0.000000	0.000000	19.974339	-1.743089	-6.860953	4.826336	-11.549015	48.669320	57.126445	9.373404	-15.085261	18.984909	13.725386	-9.109681	64.904378	51.839377	70.839456	0.563604	4.080080
0.084746	7.013463	-5.637323	93.554645	0.307573	1.056759	0.375472	-0.263759	1.738048	-15.490375	8.440981	0.147323	28.835299	16.609343	0.000000	2.617002	-1.462151	-3.562322	12.738261	0.222325	27.346686	4.293331	0.000000	0.123836	0.095683	-0.415756	0.229976	0.127258	-0.441741	0.203451	0.232644	-0.441741	0.141532	0.232644	-0.363787	0.114994	0.195117	-0.337802	0.070760	0.148213	-0.311817	0.884550	1.082385	-2.312313	0.000000	0.000000	20.159722	-1.494210	-6.391001	4.946183	-11.568068	49.126514	57.033043	9.721207	-14.674246	18.560504	13.480640	-9.160481	64.348604	51.938737	71.626418	0.596056	4.216117
0.101695	7.030802	-5.679620	93.596501	0.307576	1.056692	0.375446	-0.221268	1.741585	-15.623588	8.457247	0.147607	28.887769	16.750918	0.000000	2.686020	-1.479985	-3.561623	12.795869	0.223330	27.355192	4.214262	0.000000	0.128269	0.100128	-0.457271	0.238208	0.133170	-0.485851	0.210733	0.243451	-0.485851	0.146598	0.243451	-0.400112	0.119110	0.204181	-0.371533	0.073293	0.155098	-0.342953	0.916211	1.132668	-2.543205	0.000000	0.000000	20.314142	-1.262019	-6.027785	5.028715	-11.572200	49.473429	56.931371	10.061204	-14.239580	18.185680	13.293278	-9.198610	63.918085	52.006019	72.181433	0.592861	4.349912
0.118644	7.024618	-5.714037	93.629497	0.307589	1.056676	0.375429	-0.188926	1.723976	-15.713711	8.462804	0.147704	28.937427	16.865647	0.000000	2.741365	-1.476664	-3.597369	12.819553	0.223743	27.435679	4.287460	0.000000	0.131601	0.100919	-0.487734	0.244397	0.134222	-0.518217	0.216208	0.245374	-0.518217	0.150407	0.245374	-0.426767	0.122205	0.205793	-0.396284	0.075197	0.156323	-0.365800	0.940014	1.141612	-2.712628	0.000000	0.000000	20.437608	-1.048050	-5.759828	5.080021	-11.563349	49.722649	56.821408	10.400400	-13.783208	17.859294	13.157687	-9.225155	63.602785	52.043938	72.520794	0.561497	4.478975
0.135593	6.999368	-5.740415	93.654632	0.307611	1.056704	0.375422	-0.166531	1.689908	-15.764921	8.458444	0.147628	28.985664	16.955414	0.000000	2.783208	-1.456526	-3.664739	12.813757	0.223642	27.573977	4.488659	0.000000	0.133923	0.098702	-0.508376	0.248708	0.131274	-0.540150	0.220021	0.239985	-0.540150	0.153060	0.239985	-0.444829	0.124360	0.201274	-0.413056	0.076523	0.152890	-0.381282	0.956595	1.116540	-2.827437	0.000000	0.000000	20.530130	-0.853833	-5.575653	5.106193	-11.543455	49.886753	56.703137	10.745797	-13.307072	17.580205	13.068253	-9.241205	63.392667	52.055210	72.660792	0.509438	4.600818
0.152542	6.959511	-5.758593	93.672909	0.307641	1.056772	0.375424	-0.153881	1.644065	-15.781392	8.444958	0.147392	29.033875	17.022103	0.000000	2.811717	-1.423908	-3.758913	12.782928	0.223104	27.755912	4.793592	0.000000	0.135322	0.094126	-0.520432	0.251306	0.125188	-0.552959	0.222320	0.228859	-0.552959	0.154659	0.228859	-0.455378	0.125660	0.191942	-0.422851	0.077323	0.145802	-0.390324	0.966590	1.064776	-2.894488	0.000000	0.000000	20.591718	-0.680900	-5.463782	5.113319	-11.514456	49.978323	56.576537	11.104399	-12.813116	17.347268	13.019365	-9.247846	63.277694	52.042549	72.617717	0.444161	4.712954
0.169492	6.909502	-5.768411	93.685328	0.307678	1.056874	0.375437	-0.150776	1.591135	-15.767300	8.423137	0.147011	29.083452	17.067597	0.000000	2.827063	-1.383151	-3.875072	12.731510	0.222207	27.967314	5.177993	0.000000	0.135888	0.087838	-0.525134	0.252358	0.116824	-0.557955	0.223251	0.213569	-0.557955	0.155307	0.213569	-0.459492	0.126186	0.179119	-0.426671	0.077647	0.136061	-0.393850	0.970637	0.993641	-2.920637	0.000000	0.000000	20.622381	-0.530784	-5.412737	5.107490	-11.478292	50.009942	56.441588	11.483212	-12.303282	17.159341	13.005410	-9.246167	63.247830	52.008671	72.407863	0.373141	4.812893
0.186441	6.852308	-5.770583	93.693950	0.307739	1.057002	0.375434	-0.159228	1.538565	-15.696115	8.386758	0.146377	29.134563	17.050263	0.000000	2.822710	-1.333073	-3.961622	12.638321	0.220580	28.185003	5.558491	0.000000	0.136543	0.080470	-0.531598	0.253574	0.107026	-0.564823	0.224326	0.195656	-0.564823	0.156055	0.195656	-0.465148	0.126794	0.164095	-0.431923	0.078021	0.124649	-0.398699	0.975312	0.910297	-2.956589	0.000000	0.000000	20.619624	-0.352328	-5.339358	5.137131	-11.424118	50.070771	56.283652	11.806430	-11.814775	16.969929	12.979082	-9.252708	63.215820	51.972284	71.999478	0.325607	4.938037
0.203390	6.809251	-5.754807	93.694634	0.307804	1.057154	0.375464	-0.183723	1.506675	-15.576281	8.334009	0.145456	29.204854	17.021130	0.000000	2.801307	-1.308305	-4.132593	12.562738	0.219261	28.386008	6.023153	0.000000	0.135580	0.074916	-0.530243	0.251785	0.099639	-0.563383	0.222744	0.182152	-0.563383	0.154954	0.182152	-0.463962	0.125899	0.152769	-0.430822	0.077470	0.116045	-0.397682	0.968431	0.847468	-2.949051	0.000000	0.000000	20.561437	-0.266056	-5.318160	5.166967	-11.382470	50.089338	56.115419	12.220549	-11.241177	16.858603	13.016770	-9.252719	63.358205	51.911665	71.382615	0.282852	4.989662
0.220339	6.779575	-5.730620	93.696619	0.307851	1.057311	0.375529	-0.209931	1.488796	-15.462652	8.282719	0.144561	29.295045	17.016478	0.000000	2.775197	-1.299456	-4.320388	12.503612	0.218229	28.552177	6.474938	0.000000	0.134575	0.071196	-0.523539	0.249920	0.094691	-0.556260	0.221094	0.173107	-0.556260	0.153806	0.173107	-0.458096	0.124967	0.145184	-0.425375	0.076896	0.110283	-0.392654	0.961259	0.805388	-2.911766	0.000000	0.000000	20.463347	-0.237637	-5.322097	5.194851	-11.345309	50.053495	55.935866	12.772068	-10.638244	16.840844	13.086969	-9.243220	63.606034	51.829439	70.689124	0.228213	4.950042
0.237288	6.757360	-5.690442	93.705410	0.307889	1.057490	0.375610	-0.252874	1.481312	-15.377035	8.227434	0.143596	29.391612	17.038669	0.000000	2.728114	-1.305321	-4.552539	12.443274	0.217176	28.689624	6.970966	0.000000	0.132058	0.067958	-0.512622	0.245246	0.090384	-0.544661	0.216959	0.165232	-0.544661	0.150930	0.165232	-0.448544	0.122629	0.138579	-0.416505	0.075458	0.105266	-0.384466	0.943280	0.768749	-2.851049	0.000000	0.000000	20.320500	-0.256970	-5.387113	5.213771	-11.297960	49.953142	55.729436	13.476323	-9.962059	16.915295	13.155520	-9.215268	63.827021	51.727083	70.087442	0.283622	4.929305
0.254237	6.742070	-5.644528	93.702853	0.307918	1.057679	0.375703	-0.302879	1.483074	-15.276498	8.169381	0.142583	29.479050	17.036919	0.000000	2.666470	-1.303524	-4.663719	12.369469	0.215888	28.775572	7.264493	0.000000	0.129173	0.065557	-0.495521	0.239887	0.087190	-0.526491	0.212218	0.159394	-0.526491	0.147632	0.159394	-0.433581	0.119950	0.133683	-0.402611	0.073809	0.101547	-0.371641	0.922669	0.741589	-2.755938	0.000000	0.000000	20.168079	-0.284499	-5.463203	5.242467	-11.265066	49.876433	55.510232	14.356129	-9.251518	16.905789	13.224727	-9.164974	64.048746	51.604527	69.463967	0.371266	4.906333
0.271186	6.731032	-5.595465	93.709337	0.307928	1.057866	0.375810	-0.357670	1.488968	-15.219843	8.120342	0.141727	29.549344	17.034080	0.000000	2.604775	-1.304088	-4.751439	12.300558	0.214685	28.851027	7.522093	0.000000	0.125658	0.062994	-0.473009	0.233360	0.083783	-0.502572	0.206444	0.153165	-0.502572	0.143615	0.153165	-0.413883	0.116686	0.128458	-0.384320	0.071801	0.097578	-0.354757	0.897564	0.712605	-2.630734	0.000000	0.000000	20.012753	-0.327998	-5.613474	5.248876	-11.234539	49.761600	55.321992	15.150225	-8.662599	16.863450	13.327586	-9.099917	64.349390	51.461953	68.673481	0.458775	4.872348
0.288136	6.722028	-5.549409	93.719204	0.307942	1.058044	0.375931	-0.409195	1.495604	-15.219211	8.089618	0.141190	29.599738	17.033451	0.000000	2.550572	-1.310005	-4.856317	12.238400	0.213600	28.924836	7.801604	0.000000	0.121905	0.059795	-0.447584	0.226390	0.079528	-0.475558	0.200278	0.145386	-0.475558	0.139326	0.145386	-0.391636	0.113201	0.121934	-0.363662	0.069657	0.092623	-0.335688	0.870757	0.676415	-2.489326	0.000000	0.000000	19.870359	-0.371567	-5.822724	5.252371	-11.210173	49.657953	55.127788	15.981340	-8.020050	16.822681	13.434505	-9.022833	64.649699	51.310847	67.784418	0.556008	4.854794
